<svg width="289" height="374" viewBox="0 0 289 374" fill="none" xmlns="http://www.w3.org/2000/svg">
<path d="M0.164063 103.575C0.161132 11.5297 64.7785 -25.7771 144.491 20.2483C224.204 66.2737 288.826 178.203 288.829 270.248C288.832 362.294 224.214 399.601 144.502 353.576C64.7891 307.55 0.166993 195.621 0.164063 103.575Z" fill="#E1F0FA" fill-opacity="0.2"/>
<rect width="47.7096" height="47.7096" rx="8" transform="matrix(0.86601 0.500028 3.18351e-05 1 209.959 166.316)" fill="black" fill-opacity="0.2"/>
<path d="M206.448 176.237L234.897 192.559C238.372 194.553 241.196 199.433 241.196 203.446L241.196 232.091C241.196 233.861 240.635 235.246 239.619 235.985L232.375 241.254C229.982 242.995 225.808 240.738 223.247 236.321L195.64 188.697C193.037 184.206 193.199 179.381 195.99 178.242L202.392 175.63C203.523 175.169 204.96 175.384 206.448 176.237Z" fill="#0B6699" stroke="#15374F" stroke-width="1.5"/>
<rect x="0.649531" y="1.12502" width="46.2096" height="46.2096" rx="7.25" transform="matrix(0.86601 0.500028 3.18351e-05 1 193.046 173.995)" fill="#96AEC0" stroke="#15374F" stroke-width="1.5"/>
<path d="M212.334 199.191C212.503 199.503 212.709 199.795 212.939 200.045C213.169 200.296 213.418 200.5 213.67 200.646C213.921 200.791 214.17 200.874 214.4 200.889C214.63 200.904 214.836 200.851 215.005 200.733L215.869 200.134C216.118 199.96 216.446 199.928 216.808 200.043C217.17 200.157 217.549 200.414 217.892 200.776C218.235 201.138 218.526 201.589 218.724 202.066C218.922 202.542 219.018 203.022 218.999 203.44L218.934 204.887C218.921 205.17 218.961 205.483 219.052 205.806C219.142 206.13 219.281 206.456 219.459 206.764C219.637 207.073 219.85 207.356 220.085 207.596C220.32 207.836 220.572 208.027 220.823 208.157L222.109 208.823C222.481 209.015 222.848 209.339 223.163 209.749C223.477 210.16 223.722 210.637 223.864 211.115C224.006 211.594 224.038 212.05 223.956 212.421C223.874 212.792 223.682 213.059 223.406 213.187L222.455 213.635C222.268 213.721 222.118 213.873 222.016 214.079C221.914 214.285 221.861 214.542 221.861 214.832C221.861 215.123 221.914 215.441 222.016 215.765C222.119 216.09 222.268 216.414 222.455 216.716L223.406 218.262C223.682 218.708 223.874 219.198 223.956 219.664C224.038 220.129 224.006 220.548 223.864 220.862C223.722 221.177 223.477 221.371 223.163 221.419C222.849 221.467 222.481 221.365 222.11 221.129L220.823 220.309C220.572 220.149 220.32 220.05 220.085 220.019C219.85 219.987 219.637 220.024 219.459 220.127C219.281 220.23 219.142 220.396 219.052 220.616C218.962 220.835 218.922 221.103 218.935 221.401L219 222.923C219.019 223.362 218.923 223.731 218.725 223.979C218.526 224.227 218.236 224.342 217.893 224.308C217.55 224.274 217.171 224.093 216.809 223.789C216.446 223.486 216.118 223.075 215.869 222.613L215.006 221.017C214.837 220.704 214.631 220.413 214.401 220.163C214.171 219.912 213.922 219.707 213.67 219.562C213.419 219.417 213.17 219.334 212.94 219.319C212.71 219.304 212.504 219.357 212.335 219.475L211.473 220.075C211.224 220.249 210.896 220.28 210.533 220.165C210.171 220.05 209.793 219.794 209.45 219.432C209.106 219.07 208.816 218.619 208.617 218.143C208.419 217.666 208.322 217.186 208.341 216.768L208.406 215.321C208.42 215.038 208.382 214.724 208.293 214.4C208.203 214.075 208.065 213.748 207.887 213.438C207.709 213.128 207.495 212.843 207.259 212.602C207.023 212.36 206.771 212.168 206.519 212.037L205.232 211.371C204.861 211.178 204.494 210.855 204.18 210.444C203.866 210.034 203.621 209.557 203.479 209.079C203.337 208.601 203.305 208.145 203.386 207.774C203.468 207.403 203.659 207.135 203.935 207.006L204.885 206.559C205.072 206.472 205.221 206.32 205.323 206.113C205.425 205.907 205.478 205.65 205.478 205.36C205.478 205.07 205.425 204.752 205.323 204.428C205.221 204.103 205.072 203.78 204.885 203.477L203.934 201.932C203.661 201.486 203.472 200.999 203.391 200.536C203.311 200.073 203.343 199.657 203.484 199.344C203.625 199.032 203.868 198.837 204.179 198.787C204.491 198.738 204.856 198.836 205.226 199.067L206.512 199.887C206.764 200.048 207.016 200.148 207.251 200.18C207.487 200.212 207.701 200.176 207.879 200.073C208.058 199.971 208.197 199.805 208.288 199.585C208.378 199.366 208.418 199.098 208.405 198.8L208.34 197.278C208.322 196.839 208.418 196.47 208.617 196.223C208.815 195.975 209.106 195.86 209.449 195.895C209.792 195.929 210.17 196.11 210.533 196.413C210.895 196.716 211.223 197.127 211.472 197.588L212.334 199.191Z" fill="#C7D3DC" stroke="#0B6699" stroke-width="1.5" stroke-linecap="round" stroke-linejoin="round"/>
<path d="M213.672 214.212C215.641 215.349 217.237 214.428 217.237 212.156C217.237 209.883 215.641 207.12 213.672 205.983C211.703 204.846 210.107 205.767 210.108 208.039C210.108 210.312 211.704 213.075 213.672 214.212Z" fill="#96AEC0" stroke="#0B6699" stroke-width="1.5" stroke-linecap="round" stroke-linejoin="round"/>
<line x1="177.51" y1="146.685" x2="194.852" y2="176.722" stroke="#96AEC0" stroke-width="1.5" stroke-linecap="round" stroke-dasharray="6 6"/>
<rect width="89.4554" height="89.4554" rx="16" transform="matrix(0.86601 0.500028 3.18351e-05 1 112.965 196.648)" fill="black" fill-opacity="0.2"/>
<path d="M113.868 211.066L164.703 240.655C171.976 244.888 177.857 255.101 177.857 263.5L177.857 323.659C177.857 325.379 177.255 326.678 176.188 327.261L165.9 332.888C165.375 333.175 164.501 332.147 164.617 331.379C164.818 330.049 163.851 328.181 162.583 327.449L114.896 299.915C107.602 295.703 101.689 285.462 101.689 277.039L101.687 220.534C101.687 219.099 100.762 217.355 99.5295 216.464C98.4993 215.72 98.1393 213.999 98.9587 213.736L109.667 210.295C110.867 209.909 112.346 210.18 113.868 211.066Z" fill="#0B6699" stroke="#15374F" stroke-width="1.5"/>
<rect x="0.649531" y="1.12502" width="87.9554" height="87.9554" rx="15.25" transform="matrix(0.86601 0.500028 3.18351e-05 1 93.9679 205.865)" fill="#96AEC0" stroke="#15374F" stroke-width="1.5"/>
<path d="M140.351 305.142C137.995 305.352 135.323 304.636 132.603 303.065C129.884 301.495 127.212 299.125 124.856 296.195C122.501 293.265 120.545 289.877 119.185 286.372C117.825 282.867 117.109 279.369 117.109 276.229" stroke="#0B6699" stroke-width="1.5" stroke-linecap="round" stroke-linejoin="round"/>
<path d="M148.094 294.119C148.096 296.583 147.657 298.766 146.805 300.53" stroke="#0B6699" stroke-width="1.5" stroke-linecap="round" stroke-linejoin="round"/>
<path d="M132.598 249.395C133.638 249.995 134.676 250.714 135.696 251.542" stroke="#0B6699" stroke-width="1.5" stroke-linecap="round" stroke-linejoin="round"/>
<path d="M117.108 265.495L117.108 258.34C117.107 254.858 117.986 251.959 119.637 249.999C121.288 248.039 123.64 247.104 126.404 247.307" stroke="#0B6699" stroke-width="1.5" stroke-linecap="round" stroke-linejoin="round"/>
<path d="M141.9 285.176L141.9 290.543C141.9 292.427 141.471 294.03 140.655 295.191C139.839 296.352 138.666 297.03 137.253 297.156C135.839 297.282 134.236 296.853 132.604 295.911C130.972 294.968 129.369 293.547 127.956 291.789" stroke="#0B6699" stroke-width="1.5" stroke-linecap="round" stroke-linejoin="round"/>
<path d="M123.311 279.81L123.311 261.921C123.31 260.204 123.667 258.717 124.35 257.586C125.034 256.456 126.024 255.714 127.239 255.423C128.453 255.133 129.856 255.302 131.329 255.917C132.802 256.531 134.303 257.573 135.706 258.956" stroke="#0B6699" stroke-width="1.5" stroke-linecap="round" stroke-linejoin="round"/>
<path d="M135.699 272.653L135.7 286.964C135.7 287.913 135.374 288.634 134.792 288.97C134.211 289.305 133.423 289.227 132.601 288.752C131.779 288.278 130.991 287.446 130.41 286.439C129.829 285.433 129.502 284.334 129.502 283.385L129.502 276.23" stroke="#0B6699" stroke-width="1.5" stroke-linecap="round" stroke-linejoin="round"/>
<path d="M129.502 265.497C129.502 264.548 129.828 263.826 130.41 263.491C130.991 263.155 131.779 263.233 132.601 263.708" stroke="#0B6699" stroke-width="1.5" stroke-linecap="round" stroke-linejoin="round"/>
<path d="M151.194 285.176C156.328 288.141 160.49 285.738 160.49 279.81C160.489 273.883 156.327 266.674 151.193 263.709C146.059 260.745 141.897 263.147 141.897 269.075C141.897 275.003 146.059 282.212 151.194 285.176Z" fill="#C7D3DC" stroke="#0B6699" stroke-width="1.5" stroke-linecap="round" stroke-linejoin="round"/>
<path d="M151.195 260.133L151.196 267.289" stroke="#0B6699" stroke-width="1.5" stroke-linecap="round" stroke-linejoin="round"/>
<path d="M151.197 281.601L151.197 288.756" stroke="#0B6699" stroke-width="1.5" stroke-linecap="round" stroke-linejoin="round"/>
<path d="M157.387 278.02L163.584 281.598" stroke="#0B6699" stroke-width="1.5" stroke-linecap="round" stroke-linejoin="round"/>
<path d="M138.801 267.288L144.998 270.867" stroke="#0B6699" stroke-width="1.5" stroke-linecap="round" stroke-linejoin="round"/>
<path d="M151.195 273.55C151.348 273.639 151.498 273.777 151.625 273.949C151.752 274.121 151.852 274.318 151.91 274.516C151.969 274.713 151.984 274.902 151.954 275.058C151.925 275.214 151.851 275.331 151.742 275.393C151.634 275.456 151.496 275.461 151.346 275.409C151.196 275.357 151.04 275.249 150.898 275.1C150.757 274.95 150.636 274.766 150.551 274.57C150.465 274.373 150.42 274.174 150.42 273.997C150.42 273.76 150.502 273.58 150.647 273.496C150.792 273.412 150.989 273.431 151.195 273.55Z" stroke="#0B6699" stroke-width="1.5" stroke-linecap="round" stroke-linejoin="round"/>
<rect width="65.6006" height="65.6006" rx="12" transform="matrix(0.86601 0.500028 3.18351e-05 1 47.6074 85.4583)" fill="black" fill-opacity="0.2"/>
<path d="M47.7589 99.3222L83.1807 120.111C88.5301 123.251 92.8436 130.763 92.8436 136.94L92.8436 178.451C92.8436 181.791 91.5586 184.216 89.3364 185.07L82.9172 187.537C79.028 189.032 73.306 185.407 69.7495 179.194L33.645 116.128C29.4197 108.747 30.0414 100.969 34.9504 99.7933L42.0523 98.0926C43.7199 97.6932 45.7162 98.1234 47.7589 99.3222Z" fill="#0B6699" stroke="#15374F" stroke-width="1.5"/>
<rect x="0.649531" y="1.12502" width="64.1006" height="64.1006" rx="11.25" transform="matrix(0.86601 0.500028 3.18351e-05 1 29.8565 94.6835)" fill="#96AEC0" stroke="#15374F" stroke-width="1.5"/>
<path d="M76.1321 167.005L76.1323 172.536L76.1323 173.301C76.1324 174.406 75.357 174.854 74.4004 174.301L73.7374 173.919L68.9475 171.153" stroke="#0B6699" stroke-width="1.5" stroke-linecap="round" stroke-linejoin="round"/>
<path d="M68.9453 129.67L73.7352 132.436L74.3982 132.819C75.3547 133.371 76.1302 134.714 76.1302 135.819L76.1303 136.584L76.1304 142.115" stroke="#0B6699" stroke-width="1.5" stroke-linecap="round" stroke-linejoin="round"/>
<path d="M40.2053 121.373L40.2052 115.842L40.2051 115.076C40.2051 113.972 40.9805 113.524 41.9371 114.076L42.6 114.459L47.39 117.225" stroke="#0B6699" stroke-width="1.5" stroke-linecap="round" stroke-linejoin="round"/>
<path d="M47.3922 158.707L42.6023 155.942L41.9393 155.559C40.9827 155.007 40.2073 153.663 40.2072 152.559L40.2072 151.793L40.207 146.262" stroke="#0B6699" stroke-width="1.5" stroke-linecap="round" stroke-linejoin="round"/>
<path d="M68.3313 163.192C67.5883 160.336 66.212 157.441 64.3919 154.904C62.5719 152.367 60.3976 150.313 58.1685 149.026C55.9394 147.739 53.7651 147.282 51.9451 147.717C50.1252 148.152 48.749 149.459 48.0061 151.456" stroke="#0B6699" stroke-width="1.5" stroke-linecap="round" stroke-linejoin="round" stroke-dasharray="12 12"/>
<path d="M78.8345 157.861L37.5176 134.005" stroke="#0B6699" stroke-width="1.5" stroke-linecap="round"/>
<circle r="6.40643" transform="matrix(0.86601 0.500028 3.18351e-05 1 58.1763 136.457)" fill="#C7D3DC" stroke="#0B6699" stroke-width="1.5"/>
<line x1="95.8354" y1="210.065" x2="84.8266" y2="190.997" stroke="#96AEC0" stroke-width="1.5" stroke-linecap="round" stroke-dasharray="6 6"/>
<rect width="65.6006" height="65.6006" rx="12" transform="matrix(0.86601 0.500028 3.18351e-05 1 140.881 42.8816)" fill="black" fill-opacity="0.2"/>
<path d="M138.719 54.9951L176.141 76.6254C181.52 79.7344 185.879 87.2872 185.879 93.4981L185.879 134.043C185.879 137.158 184.76 139.488 182.789 140.477L175.919 143.925C172.04 145.871 165.974 142.198 162.276 135.665L126.569 72.5836C122.759 65.8528 122.925 58.6848 126.936 56.708L132.092 54.1671C133.894 53.2787 136.262 53.5745 138.719 54.9951Z" fill="#0B6699" stroke="#15374F" stroke-width="1.5"/>
<rect x="0.649531" y="1.12502" width="64.1006" height="64.1006" rx="11.25" transform="matrix(0.86601 0.500028 3.18351e-05 1 122.649 51.1374)" fill="#96AEC0" stroke="#15374F" stroke-width="1.5"/>
<path d="M168.185 108.12L168.184 92.5079C168.184 91.7699 167.93 90.9154 167.478 90.1326C167.026 89.3498 166.413 88.7027 165.774 88.3336L134.445 70.2445C133.806 69.8755 133.193 69.8147 132.741 70.0756C132.289 70.3366 132.035 70.8978 132.035 71.6358L132.036 99.4637C132.036 100.202 132.29 101.056 132.742 101.839C133.194 102.622 133.807 103.269 134.446 103.638L136.856 105.029L136.856 113.378L144.043 111.312L149.078 114.22" stroke="#0B6699" stroke-width="1.5" stroke-linecap="round" stroke-linejoin="round"/>
<path d="M162.64 128.264C167.203 130.899 170.903 128.763 170.902 123.494C170.902 118.225 167.203 111.817 162.64 109.182C158.076 106.547 154.377 108.683 154.377 113.952C154.377 119.222 158.077 125.629 162.64 128.264Z" fill="#C7D3DC" stroke="#0B6699" stroke-width="1.5" stroke-linecap="round" stroke-linejoin="round"/>
<path d="M166.321 118.076L162.321 121.925C162.232 122.01 162.118 122.058 161.988 122.065C161.858 122.071 161.715 122.037 161.567 121.964C161.42 121.891 161.272 121.781 161.133 121.641C160.994 121.502 160.868 121.336 160.763 121.155L158.697 117.577" stroke="#0B6699" stroke-width="1.5" stroke-linecap="round" stroke-linejoin="round"/>
<path d="M90.6016 128.953L122.141 117.8" stroke="#96AEC0" stroke-linecap="round" stroke-dasharray="9 9"/>
</svg>
