<svg xmlns="http://www.w3.org/2000/svg" width="47" height="47" viewBox="0 0 47 47">
  <g fill="none" fill-rule="evenodd">
    <circle cx="23.5" cy="23.5" r="23.5" fill="#D3D3D3"/>
    <path fill="#FFF" fill-rule="nonzero" d="M32.4888663,30.37125 C32.9276163,30.5125 33.1463663,30.99375 32.9701163,31.4125 C32.8013663,31.81125 32.3513663,32.015 31.9363663,31.88 C28.6651163,30.81125 26.4901163,29.2875 25.3301163,27.26375 C25.1088663,26.87875 25.2451163,26.38875 25.6338663,26.17 C26.0226163,25.95125 26.5176163,26.08625 26.7376163,26.47125 C27.7001163,28.1475 29.5938663,29.43625 32.4888663,30.37125 Z M21.7513663,29.6075 C20.6901163,30.22125 18.9126163,31.25125 15.2176163,32.34 C14.7051163,32.49125 14.4713663,33.07875 14.7401163,33.535 C14.8951163,33.82125 15.2676163,34 15.6363663,33.89125 C19.0151163,32.9 20.8901163,31.945 22.0638663,31.2825 C23.2301163,30.625 23.3388663,30.61375 24.4438663,31.42 C25.5138663,32.2025 27.3313663,33.34125 30.5613663,34.51625 C30.9313663,34.65 31.3251163,34.485 31.4951163,34.205 C31.7813663,33.7675 31.5838663,33.17875 31.0901163,32.99875 C27.2363663,31.59375 25.5576163,30.26625 24.7226163,29.605 C23.6401163,28.74875 23.2776163,28.72375 21.7513663,29.6075 Z M21.4226163,33.4425 C20.6251163,33.8525 19.4226163,34.47 17.3588663,35.18375 C17.0901163,35.27625 16.8901163,35.49875 16.8276163,35.77375 C16.6926163,36.3675 17.2563663,36.9175 17.8151163,36.72625 C20.0301163,35.9675 21.3188663,35.30375 22.1676163,34.8675 C22.8151163,34.53375 23.2113663,34.46625 23.9538663,34.86625 C24.8938663,35.37125 26.3763663,36.16875 28.4451163,36.9975 C29.0301163,37.2325 29.6263663,36.715 29.5151163,36.105 C29.4651163,35.82875 29.2763663,35.59875 29.0138663,35.4925 C27.0413663,34.69875 25.6251163,33.9375 24.7251163,33.45375 C23.3088663,32.6925 23.1438663,32.5575 21.4226163,33.4425 Z M20.5551163,37.505 C20.2701163,37.6375 20.0938663,37.92625 20.1076163,38.2375 C20.1288663,38.72125 20.5676163,39 20.9738663,39 C21.0876163,39 21.2001163,38.9775 21.2988663,38.93125 C23.4238663,37.94125 22.6863663,37.88125 25.0826163,38.9375 C25.1776163,38.98 25.2838663,39 25.3951163,39 C25.7951163,39 26.2413663,38.735 26.2676163,38.24625 C26.2851163,37.92625 26.1001163,37.63 25.8051163,37.5 C22.6851163,36.13125 23.5213663,36.13 20.5551163,37.505 Z M23.4976163,19.7475 C23.6713663,19.33875 23.4763663,18.8675 23.0651163,18.69625 C22.6526163,18.525 22.1788663,18.71625 22.0051163,19.125 C20.6826163,22.2475 17.3413663,24.655 12.9388663,25.71625 C12.5201163,25.8175 12.2501163,26.22125 12.3201163,26.6425 C12.3951163,27.09375 12.8413663,27.39 13.2951163,27.28125 C17.6313663,26.24 21.7751163,23.815 23.4976163,19.7475 Z M24.3063663,24.9175 C25.3338663,23.7525 26.1513663,22.46125 26.7363663,21.07875 C27.3238663,19.69 27.2226163,18.29 26.4513663,17.1375 C25.6438663,15.9325 24.1826163,15.18375 22.6376163,15.18375 C21.7651163,15.18375 20.9251163,15.42375 20.2076163,15.8775 C19.4238663,16.375 18.8051163,17.12125 18.4176163,18.035 C17.6088663,19.94375 15.4876163,21.47875 12.6001163,22.29875 C12.2401163,22.40125 11.9938663,22.73 12.0001163,23.1025 C12.0088663,23.6225 12.5126163,23.99125 13.0163663,23.84875 C16.3913663,22.89125 18.9088663,21.02 19.9101163,18.6575 C20.4651163,17.345 21.5626163,16.79 22.6376163,16.79 C24.4226163,16.79 26.1501163,18.32 25.2438663,20.45875 C23.3326163,24.97375 18.8563663,27.88 13.7976163,29.15625 C13.5751163,29.2125 13.3851163,29.35875 13.2763663,29.56 C13.1676163,29.76125 13.1463663,29.99875 13.2213663,30.21375 C13.3551163,30.60125 13.7663663,30.82 14.1651163,30.72 C16.6451163,30.09625 18.9388663,29.12 20.8801163,27.8525 C22.1901163,26.99625 23.3426163,26.01 24.3063663,24.9175 Z M17.0326163,17.1675 C17.3988663,16.54125 17.7463663,15.95 18.3438663,15.4 C19.7563663,14.09875 21.6713663,13.47125 23.5988663,13.67625 C25.4151163,13.87 27.0163663,14.77875 27.9913663,16.1675 C29.3413663,18.09125 29.0026163,20.00125 28.6751163,21.8475 C28.3938663,23.42625 28.1051163,25.05875 29.0038663,26.4875 C29.6826163,27.56625 30.9676163,28.385 32.9751163,28.995 C33.3988663,29.12375 33.8488663,28.8725 33.9563663,28.44625 C34.0651163,28.015 33.8151163,27.57625 33.3863663,27.44375 C31.8288663,26.96625 30.8363663,26.36875 30.3776163,25.63875 C29.8063663,24.73125 30.0213663,23.525 30.2688663,22.12625 C30.6176163,20.1625 31.0501163,17.71875 29.3201163,15.25125 C28.0776163,13.48 26.0563663,12.325 23.7726163,12.08125 C21.3801163,11.825 19.0001163,12.60625 17.2438663,14.225 C16.4688663,14.93625 16.0251163,15.6925 15.6338663,16.36 C15.0176163,17.41 14.4976163,18.2925 12.7438663,18.86625 C12.4663663,18.9575 12.2463663,19.1925 12.2001163,19.54125 C12.1251163,20.11625 12.6826163,20.575 13.2401163,20.39375 C15.5888663,19.62625 16.3201163,18.38 17.0326163,17.1675 Z M14.4576163,15.055 L14.9413663,14.34 C16.8776163,11.56875 20.2988663,10.21 24.0951163,10.70375 C27.7026163,11.17375 30.6651163,13.22125 31.6413663,15.92 C32.5063663,18.3125 32.1651163,20.24375 31.8901163,21.79625 C31.6526163,23.13625 31.4476163,24.295 32.1651163,25.22375 C32.4563663,25.60125 32.8713663,25.8925 33.4413663,26.11125 C33.9163663,26.29375 34.4363663,25.98 34.4938663,25.48 C34.5376163,25.1025 34.3226163,24.7425 33.9688663,24.59625 C33.7251163,24.49625 33.5513663,24.38 33.4488663,24.2475 C33.1626163,23.87875 33.3038663,23.08125 33.4826163,22.07375 C33.7738663,20.42625 34.1738663,18.17 33.1638663,15.3775 C31.7513663,11.47375 27.2313663,9 22.5963663,9 C19.5138663,9 16.5213663,10.1025 14.4051163,12.4325 C13.8713663,13.03 13.5426163,13.46125 13.2238663,14.19375 C13.0151163,14.67125 13.0963663,15.01625 13.4463663,15.25375 C13.7901163,15.4875 14.2301163,15.3975 14.4576163,15.055 Z"/>
  </g>
</svg>
