<?xml version="1.0" encoding="UTF-8"?>
<svg width="47px" height="47px" viewBox="0 0 47 47" version="1.1" xmlns="http://www.w3.org/2000/svg" xmlns:xlink="http://www.w3.org/1999/xlink">
    <!-- Generator: Sketch 46.2 (44496) - http://www.bohemiancoding.com/sketch -->
    <title>icon-lock-gray</title>
    <desc>Created with Sketch.</desc>
    <defs></defs>
    <g id="icons" stroke="none" stroke-width="1" fill="none" fill-rule="evenodd">
        <g id="icon-lock-gray">
            <circle id="Oval" fill="#D8D8D8" cx="23.5" cy="23.5" r="23.5"></circle>
            <g id="lock" transform="translate(13.000000, 10.000000)" fill="#FFFFFF">
                <path d="M17.7066663,8.85333316 L16.4419044,8.85333316 L16.4419044,6.3238094 C16.4419044,2.83306661 13.6088378,0 10.118095,0 C6.62735225,0 3.79428564,2.83306661 3.79428564,6.3238094 L3.79428564,8.85333316 L2.52952376,8.85333316 C1.13828569,8.85333316 0,9.99161885 0,11.3828569 L0,24.0304757 C0,25.4217138 1.13828569,26.5599995 2.52952376,26.5599995 L17.7066663,26.5599995 C19.0979044,26.5599995 20.2361901,25.4217138 20.2361901,24.0304757 L20.2361901,11.3828569 C20.2361901,9.99161885 19.0979044,8.85333316 17.7066663,8.85333316 L17.7066663,8.85333316 Z M10.118095,20.2361901 C8.72685697,20.2361901 7.58857128,19.0979044 7.58857128,17.7066663 C7.58857128,16.3154282 8.72685697,15.1771426 10.118095,15.1771426 C11.5093331,15.1771426 12.6476188,16.3154282 12.6476188,17.7066663 C12.6476188,19.0979044 11.5093331,20.2361901 10.118095,20.2361901 L10.118095,20.2361901 Z M14.0388569,8.85333316 L6.19733321,8.85333316 L6.19733321,6.3238094 C6.19733321,4.16106658 7.95535222,2.40304757 10.118095,2.40304757 C12.2808378,2.40304757 14.0388569,4.16106658 14.0388569,6.3238094 L14.0388569,8.85333316 L14.0388569,8.85333316 Z" id="Fill-124"></path>
            </g>
        </g>
    </g>
</svg>