<svg xmlns="http://www.w3.org/2000/svg" xmlns:xlink="http://www.w3.org/1999/xlink" width="47" height="47" viewBox="0 0 47 47"><defs><path id="a" d="M895 699.5a23.5 23.5 0 1 1 47 0 23.5 23.5 0 0 1-47 0z"/><path id="b" d="M922.5 707.08c-.22.8-.47 1.56-.9 2.26v.01l1.18 2.37-1.95 1.87-2.48-1.12v.01c-.74.42-1.53.77-2.37.98l-.92 2.54h-2.76l-.92-2.54a9.78 9.78 0 0 1-2.37-1.01l-2.49 1.13-1.95-1.86 1.16-2.38h-.02a8.88 8.88 0 0 1-1.03-2.26l-2.68-.88v-2.64l2.68-.88c.22-.81.65-1.57 1.08-2.27l-1.18-2.37 1.95-1.86 2.48 1.13v.02c.73-.41 1.53-.7 2.37-.91l.92-2.42h2.76l.92 2.42a9.4 9.4 0 0 1 2.36.88h.01l2.48-1.13 1.94 1.87-1.19 2.37h-.03c.44.7.73 1.46.95 2.27l2.5.88v2.64zm-4.22-2.2a4.5 4.5 0 0 0-4.6-4.4 4.5 4.5 0 0 0-4.6 4.4 4.5 4.5 0 0 0 4.6 4.39 4.5 4.5 0 0 0 4.6-4.39z"/><path id="c" d="M931.8 691.75c.07.51.08 1.01.01 1.5l1.19 1.07-.61 1.49-1.6-.09c-.3.4-.64.76-1.04 1.06l.1 1.6-1.45.62-1-1.19a5.1 5.1 0 0 1-1.36 0l-1.21 1.19-1.63-.62.08-1.6c-.39-.3-.75-.65-1.06-1.05l-1.61.08-.61-1.48 1.2-1.08c-.07-.5-.05-1.04.01-1.5h-.01l-1.18-1.07.61-1.49 1.6.08v.01c.3-.4.65-.76 1.06-1.06l-.09-1.6 1.49-.62 1.07 1.19c.5-.07 1-.07 1.49 0l1.08-1.19 1.48.62-.08 1.6h-.01c.4.3.75.65 1.06 1.06l1.59-.08.62 1.48zm-2.82-.28a2.69 2.69 0 0 0-3.5-1.45 2.7 2.7 0 0 0-1.45 3.51 2.68 2.68 0 0 0 4.95-2.06z"/></defs><desc>Generated with Avocode.</desc><g transform="translate(-895 -676)"><use fill="#d8d8d8" xlink:href="#a"/></g><g transform="translate(-895 -676)"><use fill="#fff" xlink:href="#b"/></g><g transform="translate(-895 -676)"><use fill="#fff" xlink:href="#c"/></g></svg>