<?xml version="1.0" encoding="UTF-8"?>
<svg width="47px" height="47px" viewBox="0 0 47 47" version="1.1" xmlns="http://www.w3.org/2000/svg" xmlns:xlink="http://www.w3.org/1999/xlink">
    <!-- Generator: Sketch 46.2 (44496) - http://www.bohemiancoding.com/sketch -->
    <title>icon-watch-gray</title>
    <desc>Created with Sketch.</desc>
    <defs></defs>
    <g id="icons" stroke="none" stroke-width="1" fill="none" fill-rule="evenodd">
        <g id="icon-watch-gray">
            <circle id="Oval" fill="#D8D8D8" cx="23.5" cy="23.5" r="23.5"></circle>
            <g id="watch" transform="translate(16.000000, 10.000000)" fill-rule="nonzero" fill="#FFFFFF">
                <path d="M14.2771084,9.02004454 C14.246988,9.02004454 14.2168675,9.02004454 14.186747,9.02004454 L14.186747,7.51670379 C14.186747,6.61469933 13.6445783,5.83296214 12.8915663,5.44209354 C11.3554217,4.38975501 11.4457831,1.29287305 11.4156627,0.932071269 C11.2951807,0.0902004454 9.87951807,0 8.34337349,0 C8.31325301,0 8.28313253,0 8.25301205,0 C8.10240964,0 7.19879518,0 7.01807229,0 C6.8373494,0 6.05421687,0 5.90361446,0 C5.87349398,0 5.84337349,0 5.81325301,0 C4.24698795,0 2.8313253,0.120267261 2.74096386,0.932071269 C2.68072289,1.29287305 2.77108434,4.54008909 1.11445783,5.50222717 C1.14457831,5.50222717 1.14457831,5.50222717 1.1746988,5.50222717 C0.481927711,5.89309577 0,6.64476615 0,7.48663697 L0,19.513363 C0,20.3552339 0.451807229,21.0768374 1.1746988,21.4977728 C1.14457831,21.4977728 1.14457831,21.4977728 1.11445783,21.4977728 C2.77108434,22.4599109 2.68072289,25.7371938 2.74096386,26.0679287 C2.8313253,26.9097996 4.24698795,27 5.81325301,27 C5.84337349,27 5.87349398,27 5.90361446,27 C6.05421687,27 6.8373494,27 7.01807229,27 C7.19879518,27 8.10240964,27 8.25301205,27 C8.28313253,27 8.31325301,27 8.34337349,27 C9.87951807,27 11.2951807,26.8797327 11.4156627,26.0679287 C11.4457831,25.7071269 11.3554217,22.610245 12.8915663,21.5579065 C13.6746988,21.1670379 14.186747,20.3853007 14.186747,19.4832962 L14.186747,18.1904232 C14.2771084,18.1603563 14.3674699,18.0701559 14.3975904,17.9498886 L14.3975904,14.1314031 C14.3975904,14.0111359 14.3072289,13.9209354 14.186747,13.8908686 L14.186747,11.7861915 C14.2168675,11.7861915 14.246988,11.7861915 14.2771084,11.7861915 C14.6686747,11.7861915 14.9698795,11.4554566 15,11.064588 L15,9.65144766 C15,9.35077951 14.6686747,9.02004454 14.2771084,9.02004454 Z M12.7710843,19.5434298 C12.7710843,20.0545657 12.3493976,20.4454343 11.8373494,20.4454343 L2.34939759,20.4454343 C1.80722892,20.4454343 1.41566265,20.0244989 1.41566265,19.5434298 L1.41566265,7.51670379 C1.41566265,7.00556793 1.8373494,6.61469933 2.34939759,6.61469933 L11.8373494,6.61469933 C12.3795181,6.61469933 12.7710843,7.03563474 12.7710843,7.51670379 L12.7710843,19.5434298 Z" id="Shape"></path>
            </g>
        </g>
    </g>
</svg>