<?xml version="1.0" encoding="UTF-8"?>
<svg width="47px" height="47px" viewBox="0 0 47 47" version="1.1" xmlns="http://www.w3.org/2000/svg" xmlns:xlink="http://www.w3.org/1999/xlink">
    <!-- Generator: Sketch 46.2 (44496) - http://www.bohemiancoding.com/sketch -->
    <title>icon-document-gray</title>
    <desc>Created with Sketch.</desc>
    <defs></defs>
    <g id="icons" stroke="none" stroke-width="1" fill="none" fill-rule="evenodd">
        <g id="icon-document-gray">
            <circle id="Oval" fill="#D8D8D8" cx="23.5" cy="23.5" r="23.5"></circle>
            <path d="M25.473,19.196 C25.048,18.757 25.072,18.069 25.508,17.644 L29.969,13.318 C30.187,13.107 30.467,13 30.744,13 C31.026,13 31.307,13.11 31.52,13.331 L25.473,19.196 L25.473,19.196 Z M18.139,30.217 C18.047,30.306 18,30.425 18,30.544 C18,30.794 18.203,31 18.455,31 C18.57,31 18.684,30.958 18.773,30.872 L19.521,30.143 L18.888,29.489 L18.139,30.217 L18.139,30.217 Z M25.518,22.877 L24.469,21.794 L21.905,24.279 C20.527,25.615 19.825,26.909 19.175,28.716 L20.308,29.885 C22.132,29.292 23.448,28.63 24.826,27.294 L27.389,24.808 L26.351,23.735 L25.518,22.877 Z M33.586,13.456 C33.014,13.456 32.43,13.665 31.946,14.134 L25.342,20.539 L28.668,23.973 L35.272,17.57 C35.757,17.1 36,16.476 36,15.851 C36,14.425 34.819,13.456 33.586,13.456 Z M30,25.466 L30,33 L14,33 L14,21 L22.013,21 L24.071,19 L12,19 L12,35 L32,35 L32,23.527 L30,25.466 Z" id="Shape" fill="#FFFFFF" fill-rule="nonzero"></path>
        </g>
    </g>
</svg>