<?xml version="1.0" encoding="UTF-8"?>
<svg width="47px" height="47px" viewBox="0 0 47 47" version="1.1" xmlns="http://www.w3.org/2000/svg" xmlns:xlink="http://www.w3.org/1999/xlink">
    <!-- Generator: Sketch 46.2 (44496) - http://www.bohemiancoding.com/sketch -->
    <title>icon-list-gray</title>
    <desc>Created with Sketch.</desc>
    <defs></defs>
    <g id="desktop" stroke="none" stroke-width="1" fill="none" fill-rule="evenodd">
        <g id="00-hp" transform="translate(-256.000000, -2174.000000)">
            <g id="icon-list-gray" transform="translate(256.000000, 2174.000000)">
                <circle id="Oval" fill="#D8D8D8" cx="23.5" cy="23.5" r="23.5"></circle>
                <g id="listing-option" transform="translate(12.000000, 14.000000)" fill-rule="nonzero" fill="#FFFFFF">
                    <path d="M2.70971979,5.38461538 L0.387054404,5.38461538 C0.282229818,5.38461538 0.191514604,5.42250386 0.114908762,5.4986597 C0.0382605503,5.57485763 0,5.6650322 0,5.76922551 L0,8.07692834 C0,8.18103745 0.0382605503,8.27138041 0.114908762,8.34736786 C0.191556974,8.4232711 0.282229818,8.46153846 0.387054404,8.46153846 L2.70971979,8.46153846 C2.81454438,8.46153846 2.90525959,8.42343949 2.98186543,8.34736786 C3.05851364,8.27121202 3.09677419,8.18103745 3.09677419,8.07692834 L3.09677419,5.76922551 C3.09677419,5.6650322 3.05847127,5.57485763 2.98186543,5.4986597 C2.90525959,5.42263015 2.81454438,5.38461538 2.70971979,5.38461538 Z" id="Shape"></path>
                    <path d="M2.70971979,16.9230769 L0.387054404,16.9230769 C0.282229818,16.9230769 0.191514604,16.9607986 0.114908762,17.0370417 C0.0382605503,17.1132007 0,17.2032947 0,17.3075344 L0,19.6154583 C0,19.7194875 0.0382605503,19.8094973 0.114908762,19.8857405 C0.191556974,19.9620679 0.282229818,20 0.387054404,20 L2.70971979,20 C2.81454438,20 2.90525959,19.9619837 2.98186543,19.8857405 C3.05851364,19.8096657 3.09677419,19.7194875 3.09677419,19.6154583 L3.09677419,17.3075344 C3.09677419,17.2032526 3.05847127,17.1132007 2.98186543,17.0369996 C2.90525959,16.9610933 2.81454438,16.9230769 2.70971979,16.9230769 Z" id="Shape"></path>
                    <path d="M2.70971979,10.7692308 L0.387054404,10.7692308 C0.282229818,10.7692308 0.191514604,10.8075413 0.114908762,10.8834887 C0.0383029207,10.9594361 0,11.0499079 0,11.1539356 L0,13.4616174 C0,13.5659399 0.0382605503,13.6561169 0.114908762,13.7321906 C0.191556974,13.8083064 0.282229818,13.8461538 0.387054404,13.8461538 L2.70971979,13.8461538 C2.81454438,13.8461538 2.90525959,13.8084327 2.98186543,13.7321906 C3.05851364,13.6561169 3.09677419,13.5659399 3.09677419,13.4616174 L3.09677419,11.1539356 C3.09677419,11.0499079 3.05847127,10.9597308 2.98186543,10.8834887 C2.90525959,10.807415 2.81454438,10.7692308 2.70971979,10.7692308 Z" id="Shape"></path>
                    <path d="M2.70971979,0 L0.387054404,0 C0.282229818,0 0.191514604,0.0380147702 0.114908762,0.114170605 C0.0383029207,0.190326441 0,0.280458914 0,0.384610122 L0,2.69231295 C0,2.79650626 0.0382605503,2.88659664 0.114908762,2.96275247 C0.191556974,3.03890831 0.282229818,3.07692308 0.387054404,3.07692308 L2.70971979,3.07692308 C2.81454438,3.07692308 2.90525959,3.0390346 2.98186543,2.96275247 C3.05851364,2.88659664 3.09677419,2.79650626 3.09677419,2.69231295 L3.09677419,0.384610122 C3.09677419,0.280416815 3.05847127,0.190326441 2.98186543,0.114170605 C2.90525959,0.0382252617 2.81454438,0 2.70971979,0 Z" id="Shape"></path>
                    <path d="M23.5776737,16.9230769 L5.84158865,16.9230769 C5.72723655,16.9230769 5.62827622,16.960798 5.54470767,17.0370402 C5.46109289,17.1132402 5.41935484,17.2032909 5.41935484,17.3075713 L5.41935484,19.6154636 C5.41935484,19.7194913 5.46109289,19.8095 5.54470767,19.8857421 C5.62832244,19.9620684 5.72709789,20 5.84158865,20 L23.5776737,20 C23.6922107,20 23.7910324,19.9619842 23.8747396,19.8857421 C23.9584006,19.8095 24,19.7194913 24,19.6154636 L24,17.3075713 C24,17.2032909 23.9582619,17.1132402 23.8747396,17.0370402 C23.7910324,16.9610927 23.6921645,16.9230769 23.5776737,16.9230769 Z" id="Shape"></path>
                    <path d="M23.5776737,10.7692308 L5.84158865,10.7692308 C5.72723655,10.7692308 5.62827622,10.8075413 5.54470767,10.8834887 C5.46113912,10.9594361 5.41935484,11.0499079 5.41935484,11.1539356 L5.41935484,13.4616174 C5.41935484,13.5659399 5.46109289,13.6561169 5.54470767,13.7321906 C5.62832244,13.8083064 5.72709789,13.8461538 5.84158865,13.8461538 L23.5776737,13.8461538 C23.6922107,13.8461538 23.7910324,13.8084327 23.8747396,13.7321906 C23.9584006,13.6561169 24,13.5659399 24,13.4616174 L24,11.1539356 C24,11.0499079 23.9582619,10.9597308 23.8747396,10.8834887 C23.7910324,10.8075413 23.6921645,10.7692308 23.5776737,10.7692308 Z" id="Shape"></path>
                    <path d="M23.8747396,0.114170605 C23.7910324,0.0381831634 23.6922107,0 23.5776737,0 L5.84158865,0 C5.72723655,0 5.62827622,0.0380147702 5.54470767,0.114170605 C5.46113912,0.190326441 5.41935484,0.280416815 5.41935484,0.384610122 L5.41935484,2.69231295 C5.41935484,2.79650626 5.46109289,2.88659664 5.54470767,2.96275247 C5.62832244,3.03890831 5.72709789,3.07692308 5.84158865,3.07692308 L23.5776737,3.07692308 C23.6922107,3.07692308 23.7910324,3.0390346 23.8747396,2.96275247 C23.9584006,2.88659664 24,2.79650626 24,2.69231295 L24,0.384610122 C23.9999538,0.280458914 23.9582157,0.190326441 23.8747396,0.114170605 Z" id="Shape"></path>
                    <path d="M23.5776737,5.38461538 L5.84158865,5.38461538 C5.72723655,5.38461538 5.62827622,5.42250386 5.54470767,5.4986597 C5.46109289,5.57485763 5.41935484,5.6650322 5.41935484,5.76922551 L5.41935484,8.07692834 C5.41935484,8.18103745 5.46109289,8.27121202 5.54470767,8.34736786 C5.62832244,8.4232711 5.72709789,8.46153846 5.84158865,8.46153846 L23.5776737,8.46153846 C23.6922107,8.46153846 23.7910324,8.42343949 23.8747396,8.34736786 C23.9584006,8.27121202 24,8.18103745 24,8.07692834 L24,5.76922551 C24,5.6650322 23.9582619,5.57485763 23.8747396,5.4986597 C23.7910324,5.42263015 23.6921645,5.38461538 23.5776737,5.38461538 Z" id="Shape"></path>
                </g>
            </g>
        </g>
    </g>
</svg>