<svg xmlns="http://www.w3.org/2000/svg" xmlns:xlink="http://www.w3.org/1999/xlink" width="47" height="47" viewBox="0 0 47 47"><defs><path id="a" d="M255 699.5a23.5 23.5 0 1 1 47 0 23.5 23.5 0 0 1-47 0z"/><path id="b" d="M273.08 711.67h2.17V714h-2.17zm4.34 0h2.16V714h-2.16zm4.33 0h2.17V714h-2.17zm1.08-25.66c1.19 0 2.17 1.04 2.17 2.32V707c0 1.28-.98 2.33-2.17 2.33h-8.66c-1.19 0-2.17-1.05-2.17-2.33v-18.67c0-1.28.98-2.33 2.17-2.33zm-8.66 18.66h8.66v-14h-8.66z"/></defs><desc>Generated with Avocode.</desc><g transform="translate(-255 -676)"><use fill="#d8d8d8" xlink:href="#a"/></g><g transform="translate(-255 -676)"><use fill="#fff" xlink:href="#b"/></g></svg>