<?xml version="1.0" encoding="UTF-8"?>
<svg width="47px" height="47px" viewBox="0 0 47 47" version="1.1" xmlns="http://www.w3.org/2000/svg" xmlns:xlink="http://www.w3.org/1999/xlink">
    <!-- Generator: Sketch 46.2 (44496) - http://www.bohemiancoding.com/sketch -->
    <title>icon-web-items-gray</title>
    <desc>Created with Sketch.</desc>
    <defs></defs>
    <g id="icons" stroke="none" stroke-width="1" fill="none" fill-rule="evenodd">
        <g id="icon-web-items-gray">
            <circle id="Oval" fill="#D8D8D8" cx="23.5" cy="23.5" r="23.5"></circle>
            <path d="M35,15.7777778 L24,15.7777778 L24,14 L35,14 L35,15.7777778 Z M35,18.4444444 L24,18.4444444 L24,20.2222222 L35,20.2222222 L35,18.4444444 Z M35,22.8888889 L24,22.8888889 L24,24.6666667 L35,24.6666667 L35,22.8888889 Z M35,27.3333333 L24,27.3333333 L24,29.1111111 L35,29.1111111 L35,27.3333333 Z M35,31.7777778 L24,31.7777778 L24,33.5555556 L35,33.5555556 L35,31.7777778 Z M22.1666667,14 L13,14 L13,22.8888889 L22.1666667,22.8888889 L22.1666667,14 Z M22.1666667,24.6666667 L13,24.6666667 L13,33.5555556 L22.1666667,33.5555556 L22.1666667,24.6666667 Z" id="Shape" fill="#FFFFFF" fill-rule="nonzero"></path>
        </g>
    </g>
</svg>