<?xml version="1.0" encoding="UTF-8"?>
<svg width="47px" height="47px" viewBox="0 0 47 47" version="1.1" xmlns="http://www.w3.org/2000/svg" xmlns:xlink="http://www.w3.org/1999/xlink">
    <!-- Generator: Sketch 46.2 (44496) - http://www.bohemiancoding.com/sketch -->
    <title>icon-mobile-sdk-gray</title>
    <desc>Created with Sketch.</desc>
    <defs></defs>
    <g id="icons" stroke="none" stroke-width="1" fill="none" fill-rule="evenodd">
        <g id="icon-mobile-sdk-gray">
            <circle id="Oval" fill="#D8D8D8" cx="23.5" cy="23.5" r="23.5"></circle>
            <path d="M24,21 C29.345,21 34,18.985 34,16.5 C34,14.015 29.345,12 24,12 C18.656,12 14,14.015 14,16.5 C14,18.985 18.656,21 24,21 Z M24.187,16.981 C23.589,16.801 21.759,16.649 21.759,15.631 C21.759,15.063 22.427,14.557 23.676,14.444 L23.676,14 L24.318,14 L24.318,14.422 C24.786,14.433 25.307,14.484 25.887,14.602 L25.653,15.287 C25.212,15.186 24.72,15.088 24.237,15.088 L24.092,15.09 C23.13,15.13 23.051,15.664 23.719,15.889 C24.811,16.226 26.251,16.474 26.251,17.368 C26.251,18.082 25.384,18.465 24.317,18.56 L24.317,19 L23.675,19 L23.675,18.584 C23.016,18.578 22.322,18.471 21.75,18.28 L22.045,17.594 C22.533,17.719 23.147,17.847 23.7,17.847 C23.845,17.847 23.984,17.838 24.117,17.819 C24.854,17.713 25.001,17.217 24.187,16.981 L24.187,16.981 Z M24,33 C27.783,33 31.708,32.031 34,30.197 L34,31.5 C34,33.985 29.345,36 24,36 C18.656,36 14,33.985 14,31.5 L14,30.196 C16.292,32.031 20.217,33 24,33 Z M24,23 C27.783,23 31.708,22.031 34,20.197 L34,21.5 C34,23.985 29.345,26 24,26 C18.656,26 14,23.985 14,21.5 L14,20.197 C16.292,22.031 20.217,23 24,23 Z M24,28 C27.783,28 31.708,27.031 34,25.197 L34,26.5 C34,28.985 29.345,31 24,31 C18.656,31 14,28.985 14,26.5 L14,25.196 C16.292,27.031 20.217,28 24,28 Z" id="Shape" fill="#FFFFFF" fill-rule="nonzero"></path>
        </g>
    </g>
</svg>