<?xml version="1.0" encoding="UTF-8"?>
<svg width="47px" height="47px" viewBox="0 0 47 47" version="1.1" xmlns="http://www.w3.org/2000/svg" xmlns:xlink="http://www.w3.org/1999/xlink">
    <!-- Generator: Sketch 46.2 (44496) - http://www.bohemiancoding.com/sketch -->
    <title>icon-hub-gray</title>
    <desc>Created with Sketch.</desc>
    <defs></defs>
    <g id="icons" stroke="none" stroke-width="1" fill="none" fill-rule="evenodd">
        <g id="icon-hub-gray">
            <circle id="Oval" fill="#D8D8D8" cx="23.5" cy="23.5" r="23.5"></circle>
            <g id="mindmap" transform="translate(10.000000, 10.000000)" fill-rule="nonzero" fill="#FFFFFF">
                <path d="M24.5857585,13.0205501 C23.8526492,13.0205501 23.2040352,13.3893394 22.8127011,13.9515763 L21.2183563,13.6740314 C21.2203324,13.6138371 21.2229408,13.5537222 21.2229408,13.4930515 C21.2229408,12.7819964 21.0825632,12.1035003 20.8298677,11.4826573 L23.5301602,9.84581719 C23.8935136,10.1238386 24.346421,10.2892538 24.8373474,10.2892538 C26.0298455,10.2892538 27,9.31455093 27,8.11646211 C27,6.9184527 26.0298455,5.94382925 24.8373474,5.94382925 C23.6449283,5.94382925 22.6748528,6.9184527 22.6748528,8.11646211 C22.6748528,8.24375954 22.6863929,8.36827755 22.7074179,8.48961909 L20.0205625,10.1182798 C19.2053291,9.11975329 18.0368597,8.42323066 16.7088055,8.2229536 L16.7088055,4.88995262 C17.6997479,4.5568987 18.4164166,3.61618417 18.4164166,2.50989562 C18.4164166,1.12598272 17.2957672,0 15.9183912,0 C14.5410942,0 13.4205238,1.12590331 13.4205238,2.50989562 C13.4205238,3.61618417 14.1369554,4.55681928 15.1279769,4.88995262 L15.1279769,8.2229536 C13.3182442,8.49581322 11.8059445,9.6909638 11.0789214,11.3150186 L6.13116487,9.78816408 C6.14602466,9.66531372 6.15456113,9.54047806 6.15456113,9.4136571 C6.15456113,7.70884032 4.77418156,6.32183036 3.07739913,6.32183036 C1.38045862,6.32183036 0,7.70884032 0,9.4136571 C0,11.1183945 1.38045862,12.505325 3.07747817,12.505325 C4.08288519,12.505325 4.97700187,12.0182912 5.53890741,11.2668949 L10.6544689,12.845526 C10.6287804,13.0579531 10.6139207,13.2737155 10.6139207,13.492972 C10.6139207,14.922388 11.1781184,16.2211712 12.093102,17.1791976 L9.86452884,19.5621928 C9.53927335,19.416313 9.1793977,19.3345186 8.8007102,19.3345186 C7.35591186,19.3345186 6.1806448,20.515375 6.1806448,21.9668675 C6.1806448,23.4182012 7.35591186,24.5989782 8.8007102,24.5989782 C10.2452714,24.5989782 11.4206175,23.4182012 11.4206175,21.9668675 C11.4206175,21.4732426 11.2844291,21.0111442 11.0482533,20.6159106 L13.3505722,18.1539799 C14.1119783,18.5790723 14.9872831,18.8221524 15.9184702,18.8221524 C16.8080025,18.8221524 17.6465531,18.5999576 18.3837725,18.2094889 L20.6810327,21.7189433 C20.1213403,22.2791155 19.7743484,23.0537002 19.7743484,23.9081733 C19.7743484,25.61299 21.1548861,27 22.8517475,27 C24.548609,27 25.9291467,25.6130695 25.9291467,23.9081733 C25.9291467,22.2034359 24.548609,20.8165053 22.8517475,20.8165053 C22.5752606,20.8165053 22.3073102,20.8539084 22.0522435,20.9229968 L19.6592641,17.2674243 C20.2248055,16.7016932 20.6632484,16.0085059 20.9302503,15.2355095 L22.4453165,15.4992368 C22.5938354,16.5527957 23.4969628,17.3658158 24.5859166,17.3658158 C25.7784147,17.3658158 26.7485692,16.3911129 26.7485692,15.1930241 C26.7484111,13.9951735 25.7782566,13.0205501 24.5857585,13.0205501 Z M12.1946703,13.492972 C12.1946703,11.4300866 13.8651319,9.75179339 15.9183121,9.75179339 C17.9716505,9.75179339 19.6420331,11.4300866 19.6420331,13.492972 C19.6420331,15.5557781 17.9715714,17.2339919 15.9183121,17.2339919 C13.8651319,17.2339919 12.1946703,15.5557781 12.1946703,13.492972 Z" id="Shape"></path>
            </g>
        </g>
    </g>
</svg>