<?xml version="1.0" encoding="UTF-8"?>
<svg width="400px" height="400px" viewBox="0 0 400 400" version="1.1" xmlns="http://www.w3.org/2000/svg" xmlns:xlink="http://www.w3.org/1999/xlink">
    <!-- Generator: Sketch 51.2 (57519) - http://www.bohemiancoding.com/sketch -->
    <title>il-antivirus</title>
    <desc>Created with Sketch.</desc>
    <defs>
        <linearGradient x1="0%" y1="50%" x2="100%" y2="50%" id="linearGradient-1">
            <stop stop-color="#86E6E6" offset="0%"></stop>
            <stop stop-color="#015672" offset="100%"></stop>
        </linearGradient>
        <linearGradient x1="0%" y1="50%" x2="100.001714%" y2="50%" id="linearGradient-2">
            <stop stop-color="#FFAE95" offset="0%"></stop>
            <stop stop-color="#FFFF2C" offset="100%"></stop>
        </linearGradient>
        <linearGradient x1="49.9991983%" y1="100%" x2="49.9991983%" y2="0%" id="linearGradient-3">
            <stop stop-color="#016977" offset="0%"></stop>
            <stop stop-color="#290B51" offset="100%"></stop>
        </linearGradient>
        <linearGradient x1="4.31875238e-15%" y1="50.0079082%" x2="100%" y2="50.0079082%" id="linearGradient-4">
            <stop stop-color="#D3008D" offset="0%"></stop>
            <stop stop-color="#FF0043" offset="100%"></stop>
        </linearGradient>
        <linearGradient x1="49.9988819%" y1="100.001009%" x2="49.9988819%" y2="0%" id="linearGradient-5">
            <stop stop-color="#AEBDFF" offset="0%"></stop>
            <stop stop-color="#DBFFEF" offset="100%"></stop>
        </linearGradient>
        <linearGradient x1="-0.00486050355%" y1="50%" x2="100%" y2="50%" id="linearGradient-6">
            <stop stop-color="#016977" offset="0%"></stop>
            <stop stop-color="#290B51" offset="100%"></stop>
        </linearGradient>
        <linearGradient x1="50%" y1="99.9968498%" x2="50%" y2="-0.001575076%" id="linearGradient-7">
            <stop stop-color="#AEBDFF" offset="0%"></stop>
            <stop stop-color="#DBFFEF" offset="100%"></stop>
        </linearGradient>
        <linearGradient x1="0%" y1="50%" x2="100.007828%" y2="50%" id="linearGradient-8">
            <stop stop-color="#016977" offset="0%"></stop>
            <stop stop-color="#290B51" offset="100%"></stop>
        </linearGradient>
        <linearGradient x1="9.37339661%" y1="78.6769126%" x2="90.6266034%" y2="21.3230874%" id="linearGradient-9">
            <stop stop-color="#57FFB3" offset="0%"></stop>
            <stop stop-color="#51F7C0" stop-opacity="0.77" offset="17%"></stop>
            <stop stop-color="#4AEFD0" stop-opacity="0.5" offset="40%"></stop>
            <stop stop-color="#44E7DC" stop-opacity="0.29" offset="60%"></stop>
            <stop stop-color="#40E2E5" stop-opacity="0.13" offset="78%"></stop>
            <stop stop-color="#3EDFEB" stop-opacity="0.03" offset="92%"></stop>
            <stop stop-color="#3DDEED" stop-opacity="0" offset="100%"></stop>
        </linearGradient>
        <linearGradient x1="90.6236973%" y1="78.6769126%" x2="9.37630271%" y2="21.3230874%" id="linearGradient-10">
            <stop stop-color="#57FFB3" offset="0%"></stop>
            <stop stop-color="#53FABB" stop-opacity="0.86" offset="8%"></stop>
            <stop stop-color="#4EF3C8" stop-opacity="0.64" offset="22%"></stop>
            <stop stop-color="#48EDD3" stop-opacity="0.44" offset="36%"></stop>
            <stop stop-color="#44E7DD" stop-opacity="0.28" offset="50%"></stop>
            <stop stop-color="#41E3E4" stop-opacity="0.16" offset="64%"></stop>
            <stop stop-color="#3FE0E9" stop-opacity="0.07" offset="77%"></stop>
            <stop stop-color="#3DDFEC" stop-opacity="0.02" offset="89%"></stop>
            <stop stop-color="#3DDEED" stop-opacity="0" offset="100%"></stop>
        </linearGradient>
        <linearGradient x1="-0.00331968574%" y1="50.0164595%" x2="99.9988934%" y2="50.0164595%" id="linearGradient-11">
            <stop stop-color="#016977" offset="0%"></stop>
            <stop stop-color="#290B51" offset="100%"></stop>
        </linearGradient>
        <linearGradient x1="0%" y1="50%" x2="100%" y2="50%" id="linearGradient-12">
            <stop stop-color="#FFAE95" offset="0%"></stop>
            <stop stop-color="#FFFF2C" offset="100%"></stop>
        </linearGradient>
        <linearGradient x1="50%" y1="0%" x2="50%" y2="100%" id="linearGradient-13">
            <stop stop-color="#57FFB3" offset="0%"></stop>
            <stop stop-color="#55FCB8" stop-opacity="0.91" offset="12%"></stop>
            <stop stop-color="#4EF4C6" stop-opacity="0.67" offset="38%"></stop>
            <stop stop-color="#44E7DC" stop-opacity="0.29" offset="74%"></stop>
            <stop stop-color="#3DDEED" stop-opacity="0" offset="100%"></stop>
        </linearGradient>
        <linearGradient x1="0%" y1="18%" x2="8%" y2="4%" id="linearGradient-14">
            <stop stop-color="#FFEC00" stop-opacity="0" offset="0%"></stop>
            <stop stop-color="#FFEC00" offset="99%"></stop>
        </linearGradient>
        <linearGradient x1="50.0005827%" y1="2.4059077e-15%" x2="50.0005827%" y2="100.000847%" id="linearGradient-15">
            <stop stop-color="#57FFB3" offset="0%"></stop>
            <stop stop-color="#54FBB9" stop-opacity="0.89" offset="13%"></stop>
            <stop stop-color="#4DF2C9" stop-opacity="0.62" offset="42%"></stop>
            <stop stop-color="#42E4E3" stop-opacity="0.18" offset="84%"></stop>
            <stop stop-color="#3DDEED" stop-opacity="0" offset="100%"></stop>
        </linearGradient>
        <linearGradient x1="14%" y1="33%" x2="8%" y2="2%" id="linearGradient-16">
            <stop stop-color="#BDFF77" stop-opacity="0" offset="0%"></stop>
            <stop stop-color="#AEFFEF" offset="99%"></stop>
        </linearGradient>
        <linearGradient x1="49.9999982%" y1="99.9995813%" x2="49.9999982%" y2="0.0104837848%" id="linearGradient-17">
            <stop stop-color="#D3008D" offset="0%"></stop>
            <stop stop-color="#FF0043" offset="100%"></stop>
        </linearGradient>
        <linearGradient x1="-0.00303907491%" y1="50%" x2="100.00076%" y2="50%" id="linearGradient-18">
            <stop stop-color="#FFAE95" offset="0%"></stop>
            <stop stop-color="#FFFF2C" offset="100%"></stop>
        </linearGradient>
    </defs>
    <g id="normalized" stroke="none" stroke-width="1" fill="none" fill-rule="evenodd">
        <g id="img-antivirus" fill-rule="nonzero">
            <polygon id="Shape" fill="url(#linearGradient-1)" points="156.946809 239.00266 239.882979 191.119681 322.821809 239.00266 239.882979 286.885638"></polygon>
            <path d="M395.81117,205.098404 L365.273936,187.468085 C359.882979,184.356383 351.178191,184.356383 345.821809,187.468085 L315.481383,205.101064 C310.125,208.212766 310.162234,213.255319 315.545213,216.367021 L346.079787,233.99734 C351.470745,237.109043 360.175532,237.111702 365.534574,233.99734 L395.87766,216.364362 C401.231383,213.255319 401.199468,208.210106 395.81117,205.098404 Z M386.170213,215.795213 C383.785553,216.066763 381.379304,216.092608 378.989362,215.87234 C378.702128,216.055851 378.404255,216.236702 378.098404,216.404255 C368.789894,221.81383 350.928191,223.933511 337.885638,216.404255 C333.896277,214.095745 331.321809,211.263298 330.172872,208.292553 C330.686187,208.664469 331.218849,209.008923 331.768617,209.324468 C335.087766,211.242021 339.273936,212.353723 343.585106,212.656915 C340.539894,210.832447 339.960106,208.135638 341.856383,205.989362 C342.232566,206.307074 342.636692,206.59014 343.06383,206.835106 C343.739049,207.218638 344.452046,207.531465 345.191489,207.768617 C342.593085,205.521277 342.99734,202.449468 346.409574,200.470745 C347.029897,201.416707 347.857577,202.208916 348.829787,202.787234 C348.191489,200.954787 349.095745,198.978723 351.537234,197.558511 C352.932341,196.783624 354.45903,196.274126 356.039894,196.055851 C355.271277,200.550532 357.696809,205.196809 363.292553,208.768617 C363.725024,208.370052 364.201502,208.022062 364.712766,207.731383 C368.603723,205.470745 374.933511,205.470745 378.848404,207.731383 C380.885638,208.906915 381.87234,210.468085 381.795213,212.010638 C383.801392,212.771534 385.886037,213.306745 388.010638,213.606383 C385.731732,214.258907 383.339812,214.417583 380.994681,214.071809 C382.655919,214.82294 384.3903,215.400472 386.170213,215.795213 Z" id="Shape" fill="#198BD1"></path>
            <path d="M388.00266,213.62234 C385.878058,213.322702 383.793413,212.787492 381.787234,212.026596 C381.864362,210.484043 380.87766,208.922872 378.840426,207.74734 C374.925532,205.486702 368.595745,205.486702 364.704787,207.74734 C364.198563,208.036366 363.7266,208.381639 363.297872,208.776596 C357.712766,205.204787 355.276596,200.558511 356.045213,196.06383 C354.464349,196.282105 352.93766,196.791603 351.542553,197.566489 C349.101064,198.986702 348.196809,200.962766 348.835106,202.795213 C347.862896,202.216895 347.035216,201.424686 346.414894,200.478723 C343.00266,202.462766 342.598404,205.531915 345.196809,207.776596 C344.457365,207.539444 343.744369,207.226617 343.069149,206.843085 C342.642011,206.598119 342.237886,206.315053 341.861702,205.99734 C339.965426,208.146277 340.531915,210.840426 343.590426,212.664894 C339.279255,212.361702 335.079787,211.25 331.773936,209.332447 C331.224168,209.016902 330.691507,208.672447 330.178191,208.300532 C331.316489,211.271277 333.87766,214.103723 337.890957,216.412234 C350.922872,223.941489 368.795213,221.821809 378.103723,216.412234 C378.409574,216.236702 378.707447,216.055851 378.994681,215.880319 C381.384623,216.100587 383.790872,216.074742 386.175532,215.803191 C384.3944,215.41394 382.658237,214.841755 380.994681,214.095745 C383.337771,214.437779 385.726857,214.276391 388.00266,213.62234 Z" id="Shape" fill="#FFFFFF"></path>
            <path d="M276.670213,332.609043 C273.976066,331.092316 271.155162,329.812676 268.239362,328.784574 C267.420213,328.486702 266.345745,328.630319 265.845745,329.101064 C265.404255,329.505319 265.526596,330.023936 266.090426,330.348404 C266.189414,330.404144 266.292557,330.452159 266.398936,330.492021 C269.093894,331.44129 271.701227,332.623043 274.191489,334.023936 C278.146277,336.308511 280.736702,338.859043 281.904255,341.648936 C282.004467,341.853333 282.1676,342.020196 282.369681,342.125 C282.874967,342.387282 283.451081,342.480505 284.013298,342.390957 C284.952128,342.260638 285.521277,341.715426 285.292553,341.172872 C283.965426,338.015957 281.074468,335.151596 276.670213,332.609043 Z" id="Shape" fill="#231F20"></path>
            <path d="M323.773936,326.446809 L293.236702,308.816489 C287.845745,305.704787 279.140957,305.704787 273.784574,308.816489 L243.444149,326.449468 C238.087766,329.56117 238.125,334.603723 243.507979,337.715426 L274.045213,355.345745 C279.433511,358.457447 288.140957,358.460106 293.49734,355.345745 L323.840426,337.712766 C329.194149,334.603723 329.162234,329.558511 323.773936,326.446809 Z M303.457447,343.526596 C292.579787,349.848404 274.888298,349.848404 263.93883,343.526596 C252.989362,337.204787 252.930851,326.957447 263.808511,320.635638 C274.68617,314.31383 292.380319,314.31383 303.329787,320.635638 C314.279255,326.957447 314.343085,337.204787 303.457447,343.526596 Z" id="Shape" fill="#231F20"></path>
            <path d="M282.81117,328.723404 C279.952218,327.081574 276.91935,325.763169 273.768617,324.792553 C272.704787,324.465426 271.388298,324.696809 270.821809,325.308511 C270.364362,325.81117 270.555851,326.414894 271.215426,326.797872 C271.379083,326.88957 271.552045,326.963569 271.731383,327.018617 C274.506389,327.872512 277.177922,329.032109 279.696809,330.476064 C284.284574,333.135638 287.829787,336.492021 289.18617,339.742021 C289.310338,339.998449 289.513581,340.208218 289.765957,340.340426 C290.397356,340.667472 291.116531,340.78485 291.819149,340.675532 C292.986702,340.515957 293.704787,339.835106 293.414894,339.156915 C291.856383,335.430851 287.946809,331.675532 282.81117,328.723404 Z" id="Shape" fill="#231F20"></path>
            <path d="M290.013298,325.013298 C286.625417,323.043899 283.032229,321.451089 279.297872,320.263298 C278.023936,319.867021 276.441489,320.146277 275.765957,320.882979 C275.210106,321.486702 275.433511,322.212766 276.228723,322.667553 C276.425002,322.778468 276.63279,322.867647 276.848404,322.933511 C280.153398,323.992493 283.333437,325.407727 286.332447,327.154255 C291.43883,330.103723 295.976064,333.909574 297.603723,337.555851 C297.751534,337.854326 297.991077,338.097598 298.287234,338.25 C299.054689,338.649393 299.93118,338.788474 300.784574,338.646277 C302.183511,338.441489 303.023936,337.617021 302.664894,336.805851 C300.797872,332.601064 295.744681,328.324468 290.013298,325.013298 Z" id="Shape" fill="#231F20"></path>
            <path d="M303.337766,320.635638 C292.388298,314.31383 274.694149,314.31383 263.816489,320.635638 C252.93883,326.957447 252.99734,337.204787 263.946809,343.526596 C274.896277,349.848404 292.587766,349.848404 303.465426,343.526596 C314.343085,337.204787 314.287234,326.957447 303.337766,320.635638 Z M284.018617,342.393617 C283.456401,342.483164 282.880286,342.389942 282.375,342.12766 C282.172919,342.022855 282.009786,341.855993 281.909574,341.651596 C280.734043,338.861702 278.143617,336.31117 274.196809,334.026596 C271.706546,332.625703 269.099213,331.443949 266.404255,330.494681 C266.297876,330.454818 266.194733,330.406803 266.095745,330.351064 C265.531915,330.026596 265.409574,329.507979 265.851064,329.103723 C266.353723,328.632979 267.428191,328.489362 268.244681,328.787234 C271.160482,329.815336 273.981385,331.094976 276.675532,332.611702 C281.079787,335.154255 283.970745,338.018617 285.303191,341.178191 C285.526596,341.718085 284.957447,342.263298 284.018617,342.393617 Z M291.808511,340.675532 C291.105892,340.78485 290.386717,340.667472 289.755319,340.340426 C289.502943,340.208218 289.2997,339.998449 289.175532,339.742021 C287.819149,336.492021 284.273936,333.125 279.68617,330.476064 C277.167284,329.032109 274.495751,327.872512 271.720745,327.018617 C271.541407,326.963569 271.368445,326.88957 271.204787,326.797872 C270.539894,326.414894 270.353723,325.81117 270.81117,325.308511 C271.37766,324.696809 272.696809,324.465426 273.757979,324.792553 C276.908712,325.763169 279.94158,327.081574 282.800532,328.723404 C287.93617,331.68883 291.843085,335.444149 293.398936,339.170213 C293.694149,339.835106 292.976064,340.515957 291.808511,340.675532 Z M300.784574,338.643617 C299.93118,338.785814 299.054689,338.646733 298.287234,338.24734 C297.991077,338.094938 297.751534,337.851667 297.603723,337.553191 C295.976064,333.906915 291.43883,330.106383 286.332447,327.151596 C283.333437,325.405067 280.153398,323.989834 276.848404,322.930851 C276.63279,322.864988 276.425002,322.775808 276.228723,322.664894 C275.430851,322.204787 275.210106,321.484043 275.765957,320.880319 C276.441489,320.143617 278.023936,319.864362 279.297872,320.260638 C283.032229,321.448429 286.625417,323.04124 290.013298,325.010638 C295.74734,328.321809 300.789894,332.598404 302.664894,336.800532 C303.023936,337.614362 302.183511,338.43883 300.797872,338.643617 L300.784574,338.643617 Z" id="Shape" fill="#1ED760"></path>
            <polygon id="Shape" fill="#FFFFFF" points="137.018617 216.446809 131.327128 206.06383 131.327128 206.06383 137.018617 216.446809"></polygon>
            <path d="M169.414894,206.859043 L138.875,189.226064 C133.484043,186.114362 124.779255,186.114362 119.422872,189.226064 L89.0824468,206.859043 C83.7260638,209.970745 83.7632979,215.013298 89.143617,218.12766 L119.680851,235.757979 C125.069149,238.869681 133.776596,238.869681 139.132979,235.757979 L169.473404,218.125 C174.824468,215.013298 174.792553,209.968085 169.414894,206.859043 Z M159.401596,219.816489 C157.281273,221.379674 155.079605,222.829402 152.805851,224.159574 L149.507979,226.074468 C145.994681,228.117021 142.236702,229.819149 142.037234,229.909574 C141.837766,230 138.617021,231.404255 135.986702,231.412234 C132.593085,231.460106 130.715426,230.385638 129.760638,229.952128 C123.199468,226.672872 114.454787,221.638298 113.994681,221.375 C113.430851,221.042553 102.726064,214.74734 99.5611702,212.534574 C98.7632979,211.867021 96.5265957,210.638298 96.5957447,208.670213 C96.5957447,207.146277 99.0425532,205.257979 99.1702128,205.159574 C101.291263,203.599572 103.491924,202.150811 105.763298,200.819149 L109.06117,198.904255 C112.579787,196.859043 116.337766,195.156915 116.534574,195.069149 C116.731383,194.981383 119.957447,193.574468 122.585106,193.56383 C125.981383,193.521277 127.853723,194.593085 128.808511,195.026596 C135.37234,198.303191 144.095745,203.340426 144.553191,203.606383 C144.571809,203.606383 153.75266,208.925532 159.446809,212.707447 C160.196809,213.260638 162.055851,214.343085 161.989362,216.308511 C161.968085,217.819149 159.523936,219.718085 159.393617,219.816489 L159.401596,219.816489 Z" id="Shape" fill="#FFFFFF"></path>
            <polygon id="Shape" fill="#FFFFFF" points="119.114362 213.159574 119.119681 213.159574 131.265957 206.098404"></polygon>
            <polygon id="Shape" fill="#FFFFFF" points="134.816489 216.042553 119.678191 213.263298 134.816489 216.042553 136.928191 216.430851"></polygon>
            <polygon id="Shape" fill="#E8E0E0" points="136.928191 216.430851 137.018617 216.446809 131.327128 206.06383 131.327128 206.06383 134.816489 216.042553"></polygon>
            <path d="M159.428191,212.707447 C153.744681,208.917553 144.56383,203.617021 144.534574,203.606383 C144.077128,203.340426 135.353723,198.303191 128.789894,195.026596 C127.835106,194.593085 125.962766,193.521277 122.566489,193.56383 C119.93883,193.56383 116.68617,194.992021 116.515957,195.069149 C116.345745,195.146277 112.56117,196.859043 109.042553,198.904255 L105.744681,200.819149 C103.473307,202.150811 101.272646,203.599572 99.1515957,205.159574 C99.0239362,205.257979 96.5824468,207.146277 96.5771277,208.670213 C96.5079787,210.638298 98.75,211.861702 99.5425532,212.534574 C102.707447,214.74734 113.412234,221.045213 113.976064,221.375 C114.43617,221.640957 123.180851,226.672872 129.742021,229.952128 C130.696809,230.385638 132.574468,231.460106 135.968085,231.412234 C138.598404,231.412234 141.848404,229.984043 142.018617,229.909574 C142.18883,229.835106 145.976064,228.117021 149.489362,226.074468 L152.787234,224.159574 C155.060988,222.829402 157.262656,221.379674 159.382979,219.816489 C159.513298,219.718085 161.952128,217.829787 161.960106,216.308511 C162.037234,214.343085 160.178191,213.260638 159.428191,212.707447 Z M134.816489,216.042553 L119.680851,213.263298 L119.12234,213.159574 L131.273936,206.098404 L131.332447,206.06383 L137.026596,216.43617 L136.93617,216.420213 L134.816489,216.042553 Z" id="Shape" fill="#DE2925"></path>
            <polygon id="Shape" fill="#FFFFFF" points="131.327128 206.06383 131.327128 206.06383 131.265957 206.098404 119.119681 213.159574 119.119681 213.159574 119.678191 213.263298 134.816489 216.042553"></polygon>
            <ellipse id="Oval" fill="url(#linearGradient-2)" cx="77.6010638" cy="333.486702" rx="77.6010638" ry="34.7898936"></ellipse>
            <polygon id="Shape" fill="url(#linearGradient-3)" points="156.946809 83.3803191 239.882979 35.4973404 322.821809 83.3803191 239.882979 131.263298"></polygon>
            <path d="M120.56117,332.369681 L79.5398936,308.720745 C78.3213064,308.106272 76.8834808,308.106272 75.6648936,308.720745 L34.643617,332.369681 C33.5797872,332.984043 33.5797872,333.989362 34.643617,334.603723 L75.6648936,358.244681 C76.8834808,358.859154 78.3213064,358.859154 79.5398936,358.244681 L120.56117,334.595745 C121.625,333.989362 121.625,332.978723 120.56117,332.369681 Z" id="Shape" fill="url(#linearGradient-4)"></path>
            <path d="M272.542553,32.9601064 C237.87766,-10.9867021 188.273936,-10.9867021 153.609043,32.9601064 C188.273936,76.9095745 237.87766,76.9095745 272.542553,32.9601064 Z" id="Shape" fill="url(#linearGradient-5)"></path>
            <circle id="Oval" fill="url(#linearGradient-6)" cx="213.074468" cy="32.9601064" r="27.3590426"></circle>
            <path d="M318.867021,75.6569149 C293.829787,47.5159574 259.119681,47.5159574 234.079787,75.6569149 C259.119681,103.800532 293.829787,103.800532 318.867021,75.6569149 Z" id="Shape" fill="url(#linearGradient-7)"></path>
            <circle id="Oval" fill="url(#linearGradient-8)" cx="276.473404" cy="75.6569149" r="16.9867021"></circle>
            <polygon id="Shape" fill="url(#linearGradient-9)" points="156.946809 239.00266 156.946809 83.3803191 239.882979 131.263298 239.882979 286.885638"></polygon>
            <polygon id="Shape" fill="url(#linearGradient-10)" points="322.821809 239.00266 322.821809 83.3803191 239.882979 131.263298 239.882979 286.885638"></polygon>
            <path d="M107.098404,332.712766 L78.9335106,316.489362 C78.0965918,316.069948 77.110855,316.069948 76.2739362,316.489362 L48.1090426,332.712766 C47.3776596,333.135638 47.3776596,333.827128 48.1090426,334.24734 L76.2739362,350.470745 C77.1102528,350.892697 78.097194,350.892697 78.9335106,350.470745 L107.098404,334.24734 C107.829787,333.832447 107.829787,333.140957 107.098404,332.712766 Z" id="Shape" fill="url(#linearGradient-11)"></path>
            <path d="M362.478723,285.553191 C359.99734,278.292553 346.005319,272.728723 329.114362,272.728723 C310.473404,272.728723 295.361702,279.505319 295.361702,287.861702 C295.361702,296.218085 310.473404,302.994681 329.114362,302.994681 C347.755319,302.994681 362.869681,296.218085 362.869681,287.861702 C362.86697,287.075955 362.734884,286.296016 362.478723,285.553191 Z" id="Shape" fill="url(#linearGradient-12)"></path>
            <path d="M287.922872,72.018617 C289.287336,76.284756 288.165165,80.9557062 285.011635,84.1364217 C281.858106,87.3171372 277.19696,88.4793596 272.919266,87.151565 C268.641572,85.8237703 265.457777,82.2264809 264.659574,77.8191489 L295.361702,287.861702 C295.361702,279.505319 310.473404,272.728723 329.114362,272.728723 C346.005319,272.728723 359.99734,278.292553 362.478723,285.553191 L287.922872,72.018617 Z" id="Shape" fill="url(#linearGradient-13)"></path>
            <polygon id="Shape" fill="url(#linearGradient-14)" points="287.68883 71.3484043 287.68883 71.3484043 287.73383 71.4634043"></polygon>
            <path d="M276.473404,87.6702128 C280.302939,87.6660887 283.901057,85.8364258 286.16035,82.744347 C288.419643,79.6522682 289.069375,75.6683046 287.909574,72.018617 C287.845745,71.8138298 287.773936,71.6117021 287.696809,71.4095745 L287.672872,71.3484043 C285.597821,65.9431982 279.96191,62.7877121 274.269223,63.8438449 C268.576537,64.8999777 264.447567,69.8670886 264.449468,75.6569149 C264.448792,76.0780215 264.470988,76.498854 264.515957,76.9175532 C264.547872,77.2207447 264.593085,77.518617 264.646277,77.8138298 C265.68875,83.5257191 270.667165,87.6745848 276.473404,87.6702128 Z" id="Shape" fill="#FFFFFF"></path>
            <circle id="Oval" fill="#FFFFFF" cx="213.074468" cy="32.9601064" r="19.3457447"></circle>
            <path d="M213.074468,52.3085106 C206.138288,52.3107041 199.731894,48.5988668 196.284138,42.5802649 C192.836381,36.561663 192.875109,29.1577369 196.385638,23.1755319 L3.50797872,323.111702 C13.3484043,308.965426 42.8005319,298.696809 77.5984043,298.696809 C120.457447,298.696809 155.202128,314.271277 155.202128,333.486702 C155.199067,334.792213 155.037422,336.092518 154.720745,337.359043 L231.734043,38.0797872 C229.427371,46.4830413 221.788561,52.3079606 213.074468,52.3085106 Z" id="Shape" fill="url(#linearGradient-15)"></path>
            <polygon id="Shape" fill="url(#linearGradient-16)" points="197.346064 21.7792553 197.346064 21.7792553 197.226064 21.9642553"></polygon>
            <path d="M96.4574468,310.827128 L81.5398936,319.930851 C78.7327251,321.6439 75.2034452,321.6439 72.3962766,319.930851 L57.4787234,310.827128 C54.8670738,309.233392 53.2738621,306.394634 53.2739362,303.335106 L53.2739362,279.255319 C53.2739362,274.408139 57.2033519,270.478723 62.0505319,270.478723 L91.8856383,270.478723 C96.7328183,270.478723 100.662234,274.408139 100.662234,279.255319 L100.662234,303.329787 C100.664163,306.391208 99.0707141,309.232406 96.4574468,310.827128 Z" id="Shape" fill="url(#linearGradient-17)"></path>
            <polygon id="Shape" fill="#FFFFFF" points="65.2952128 310.49734 68.9015957 312.579787 75.8138298 308.56383 82.768617 312.579787 86.3537234 310.49734 86.2845745 310.460106 79.3962766 306.481383 86.3085106 302.465426 82.6994681 300.382979 75.7898936 304.398936 68.8324468 300.382979 65.25 302.465426 72.2047872 306.481383"></polygon>
            <path d="M86.8164894,277.640957 L64.7845745,277.640957 C64.3460829,277.640957 63.9255895,277.815329 63.6157786,278.125639 C63.3059678,278.435948 63.1322726,278.856722 63.1329787,279.295213 L63.1329787,290.441489 C63.1330433,291.192326 63.6403407,291.848314 64.3670213,292.037234 L66.8776596,292.696809 L66.8776596,295.31383 C66.8776596,296.139319 67.546851,296.808511 68.3723404,296.808511 L70.4787234,296.808511 C71.3042128,296.808511 71.9734043,296.139319 71.9734043,295.31383 L71.9734043,294.029255 L73.2446809,294.361702 L73.2446809,296.43883 C73.2446809,297.264319 73.9138723,297.933511 74.7393617,297.933511 L76.837766,297.933511 C77.6632554,297.933511 78.3324468,297.264319 78.3324468,296.43883 L78.3324468,294.369681 L79.4973404,294.066489 L79.4973404,295.348404 C79.4966328,295.745035 79.6538804,296.125624 79.934341,296.406085 C80.2148015,296.686545 80.5953908,296.843793 80.9920213,296.843085 L83.0930851,296.843085 C83.489255,296.843086 83.86916,296.685526 84.1490449,296.405142 C84.4289297,296.124759 84.5858126,295.744574 84.5851064,295.348404 L84.5851064,292.734043 L87.2446809,292.037234 C87.9718729,291.848507 88.4800682,291.192771 88.481383,290.441489 L88.481383,279.295213 C88.4813921,278.854628 88.3056454,278.432241 87.9931077,278.1217 C87.6805699,277.81116 87.2570655,277.638124 86.8164894,277.640957 Z M74.4920213,286.569149 C74.4920213,287.676656 73.5942093,288.574468 72.4867021,288.574468 L68.4734043,288.574468 C67.3665045,288.573003 66.4695502,287.676049 66.4680851,286.569149 L66.4680851,283.925532 C66.4680851,282.818025 67.3658971,281.920213 68.4734043,281.920213 L72.4867021,281.920213 C73.0187623,281.919506 73.529234,282.130553 73.9054576,282.506776 C74.2816813,282.883 74.4927283,283.393472 74.4920213,283.925532 L74.4920213,286.569149 Z M85.0744681,286.569149 C85.0744691,287.675618 84.1782769,288.573001 83.0718085,288.574468 L79.0558511,288.574468 C77.9489513,288.573003 77.051997,287.676049 77.0505319,286.569149 L77.0505319,283.925532 C77.0505319,282.818025 77.9483439,281.920213 79.0558511,281.920213 L83.0718085,281.920213 C83.603408,281.920212 84.1131957,282.131571 84.4888438,282.507718 C84.8644919,282.883865 85.0751741,283.393933 85.0744681,283.925532 L85.0744681,286.569149 Z" id="Shape" fill="#FFFFFF"></path>
            <path d="M282.840426,236.601064 L241.821809,212.952128 C240.602295,212.337611 239.163662,212.337611 237.944149,212.952128 L196.925532,236.601064 C195.861702,237.215426 195.861702,238.220745 196.925532,238.835106 L237.944149,262.484043 C239.163662,263.098559 240.602295,263.098559 241.821809,262.484043 L282.840426,238.829787 C283.906915,238.220745 283.906915,237.215426 282.840426,236.601064 Z" id="Shape" fill="url(#linearGradient-18)"></path>
        </g>
    </g>
</svg>